<svg xmlns="http://www.w3.org/2000/svg" enable-background="new 0 0 32 32" viewBox="0 0 32 32"><path fill="#F5E6FE" d="M26,32H6c-3.314,0-6-2.686-6-6V6c0-3.314,2.686-6,6-6h20c3.314,0,6,2.686,6,6v20C32,29.314,29.314,32,26,32z"/><path fill="#D9A4FC" d="M17.955,20.269v1.515h5.706c0.093,0,0.173-0.029,0.24-0.091C23.967,21.633,24,21.558,24,21.465V10.541c0.001-0.09-0.029-0.17-0.099-0.235c-0.059-0.067-0.139-0.098-0.239-0.098h-5.709v1.712h4.654v0.656h-4.654v0.861h4.654v0.689h-4.654v0.844h4.654v0.689h-4.654v0.854h4.654v0.681h-4.654v0.852h4.652v0.689h-4.655v0.844h4.659v0.69H17.955z"/><path fill="#BE63F9" d="M17.1,8.5L8,10.102v11.839L17.1,23.5V8.5z M14.43,18.769L13.25,18.7l-0.41-2.085c-0.239-1.212-0.369-1.918-0.41-2.119H12.4c-0.03,0.189-0.17,0.879-0.41,2.068l-0.41,2.025l-1.089-0.069l-1.05-5.204l0.98-0.051l0.65,4.126h0.01c0.037-0.2,0.176-0.912,0.426-2.136l0.428-2.101l1.069-0.053l0.426,2.154c0.24,1.269,0.374,2.011,0.41,2.223h0.017l0.731-4.479l1.14-0.069v-0.001h0.023L14.43,18.769z"/></svg>