<svg xmlns="http://www.w3.org/2000/svg" enable-background="new 0 0 36 36" viewBox="0 0 36 36"><path fill="#EFEFEF" d="M8.114,5.564C6.309,12.241,1.61,15.891,0.74,19.109s-0.847,10.475,13.955,14.477s19.432-4.501,20.388-8.041C39.564,8.973,11.311-6.262,8.114,5.564z"/><path fill="#A4AFC1" d="M23.279,31.5c-0.827,0-1.5-0.673-1.5-1.5s0.673-1.5,1.5-1.5s1.5,0.673,1.5,1.5S24.106,31.5,23.279,31.5z M23.279,29.5c-0.276,0-0.5,0.224-0.5,0.5s0.224,0.5,0.5,0.5s0.5-0.224,0.5-0.5S23.555,29.5,23.279,29.5z"/><rect width="2" height="1" x="7.033" y="5.566" fill="#A4AFC1" transform="rotate(-45.001 8.033 6.066)"/><rect width="2" height="1" x="2.967" y="9.632" fill="#A4AFC1" transform="rotate(-45.001 3.967 10.132)"/><rect width="1" height="2" x="3.467" y="4.889" fill="#A4AFC1" transform="rotate(-45.001 3.967 5.89)"/><polygon fill="#2FDF84" points="19.5 7.125 19.5 28.875 6.75 27.125 6.75 9.125"/><rect width="9.75" height="17" x="19.5" y="9.125" fill="#F3F3F1"/><polygon fill="#00B871" points="9 27.125 9 9.125 19.5 7.478 19.5 7.125 6.75 9.125 6.75 27.125 19.5 28.875 19.5 28.566"/><rect width="2.25" height="17" x="19.5" y="9.125" fill="#D5DBE1"/><path d="M19.5,29.625c-0.034,0-0.068-0.002-0.102-0.007l-12.75-1.75C6.277,27.817,6,27.5,6,27.125v-18c0-0.369,0.269-0.684,0.634-0.741l12.75-2c0.218-0.034,0.437,0.028,0.604,0.171c0.167,0.143,0.263,0.351,0.263,0.57v21.75c0,0.217-0.094,0.423-0.257,0.565C19.855,29.56,19.68,29.625,19.5,29.625z M7.5,26.471l11.25,1.544V8.002L7.5,9.767V26.471z"/><path d="M29.25,26.875H19.5c-0.414,0-0.75-0.336-0.75-0.75v-17c0-0.414,0.336-0.75,0.75-0.75h9.75c0.414,0,0.75,0.336,0.75,0.75v17C30,26.539,29.664,26.875,29.25,26.875z M20.25,25.375h8.25v-15.5h-8.25V25.375z"/><rect width="7.25" height="1.5" x="19.5" y="11.875"/><rect width="7.25" height="1.5" x="19.5" y="14.375"/><rect width="7.25" height="1.5" x="19.5" y="16.875"/><rect width="7.25" height="1.5" x="19.5" y="19.375"/><rect width="7.25" height="1.5" x="19.5" y="21.875"/><path d="M15.361,22.583c-0.31,0-0.59-0.191-0.701-0.484l-2.036-5.375l-1.265,4.382c-0.093,0.321-0.387,0.542-0.721,0.542l0,0c-0.334,0-0.628-0.221-0.721-0.542L8.029,14.56l1.441-0.416l1.168,4.049l1.168-4.049c0.09-0.31,0.368-0.528,0.69-0.542c0.333-0.019,0.617,0.182,0.731,0.484l1.948,5.143l1.341-5.977l1.464,0.328l-1.889,8.417c-0.073,0.323-0.349,0.561-0.679,0.584C15.396,22.583,15.379,22.583,15.361,22.583z"/></svg>