<svg xmlns="http://www.w3.org/2000/svg" enable-background="new 0 0 36 36" viewBox="0 0 36 36"><path fill="#EFEFEF" d="M1.003,14.311c3.253,6.104,2.324,11.981,3.891,14.923s6.551,8.218,20.083,1.008s11.09-16.579,9.365-19.815C26.27-4.724-4.758,3.5,1.003,14.311z"/><rect width="2" height="1" x="28.565" y="4.57" fill="#A4AFC1" transform="rotate(-88.321 29.565 5.07)"/><rect width="1" height="2" x="31.734" y="6.9" fill="#A4AFC1" transform="rotate(-88.321 32.233 7.9)"/><path fill="#A4AFC1" d="M5.809,7.07c-0.827,0-1.5-0.673-1.5-1.5s0.673-1.5,1.5-1.5s1.5,0.673,1.5,1.5S6.636,7.07,5.809,7.07z M5.809,5.07c-0.275,0-0.5,0.224-0.5,0.5s0.225,0.5,0.5,0.5s0.5-0.224,0.5-0.5S6.084,5.07,5.809,5.07z"/><polygon fill="#2FDF84" points="19.5 7.25 19.5 28.75 6.75 27.02 6.75 9.227"/><rect width="9.75" height="17.299" x="19.5" y="8.733" fill="#F3F3F1"/><polygon fill="#00B871" points="9 27.02 9 9.227 19.5 7.599 19.5 7.25 6.75 9.227 6.75 27.02 19.5 28.75 19.5 28.445"/><rect width="2.25" height="17.299" x="19.5" y="8.733" fill="#D5DBE1"/><path d="M19.5,29.5c-0.033,0-0.067-0.002-0.101-0.007l-12.75-1.73C6.277,27.713,6,27.395,6,27.02V9.227c0-0.37,0.27-0.685,0.635-0.741l12.75-1.977c0.22-0.032,0.438,0.029,0.604,0.172c0.166,0.142,0.262,0.351,0.262,0.569v21.5c0,0.216-0.094,0.422-0.257,0.565C19.855,29.435,19.681,29.5,19.5,29.5z M7.5,26.365l11.25,1.527V8.125L7.5,9.87V26.365z"/><path d="M29.25,26.782H19.5c-0.414,0-0.75-0.336-0.75-0.75V8.733c0-0.414,0.336-0.75,0.75-0.75h9.75c0.414,0,0.75,0.336,0.75,0.75v17.299C30,26.446,29.664,26.782,29.25,26.782z M20.25,25.282h8.25V9.483h-8.25V25.282z"/><rect width="1.5" height="17.299" x="23.5" y="8.733"/><rect width="9.75" height="1.5" x="19.5" y="11.442"/><rect width="9.75" height="1.5" x="19.5" y="14.902"/><rect width="9.75" height="1.5" x="19.5" y="18.362"/><rect width="9.75" height="1.5" x="19.5" y="21.822"/><rect width="1.501" height="10.042" x="11.75" y="12.608" transform="rotate(-33.207 12.5 17.629)"/><rect width="10.042" height="1.501" x="7.479" y="16.879" transform="rotate(-56.817 12.5 17.63)"/></svg>