<svg xmlns="http://www.w3.org/2000/svg" enable-background="new 0 0 32 32" viewBox="0 0 32 32"><path fill="#E3F8FA" d="M26,32H6c-3.314,0-6-2.686-6-6V6c0-3.314,2.686-6,6-6h20c3.314,0,6,2.686,6,6v20C32,29.314,29.314,32,26,32z"/><path fill="#8CE1EB" d="M23.914,21.439C23.971,21.265,24,21.123,24,21.016v-10.97c0-0.085-0.029-0.136-0.086-0.154c-0.057-0.017-0.127-0.027-0.212-0.027h-5.36v0.989h1.58v1.565h-1.58v0.499h1.58v1.567h-1.58v0.513h1.58v1.482h-1.58v0.594h1.58v1.485h-1.58v0.594h1.58v1.494h-1.58v1.09h5.36C23.787,21.711,23.858,21.612,23.914,21.439z M23.007,20.645h-2.571v-1.493h2.571V20.645z M23.007,18.559h-2.571v-1.486h2.571V18.559z M23.007,16.479h-2.571v-1.475h2.571V16.479z M23.007,14.484h-2.571v-1.565h2.571V14.484z M23.007,12.41h-2.571v-1.556h2.571V12.41z"/><path fill="#26C6DA" d="M17.44,7.948L8,9.618v12.368l9.44,1.628V7.948z M13.595,18.974c-0.036-0.097-0.205-0.509-0.505-1.239c-0.299-0.729-0.48-1.153-0.533-1.274h-0.017l-1.013,2.404l-1.353-0.091l1.605-2.992l-1.47-2.992l1.38-0.072l0.912,2.341h0.018l1.03-2.448l1.426-0.09l-1.698,3.238l1.75,3.303L13.595,18.974z"/></svg>