<svg xmlns="http://www.w3.org/2000/svg" xmlns:xlink="http://www.w3.org/1999/xlink" viewBox="0 0 115 100"><defs><style>.cls-1{fill:url(#Dégradé_sans_nom_3);}.cls-2{fill:#ed6862;opacity:0.5;}.cls-3{fill:#d70142;}</style><linearGradient id="Dégradé_sans_nom_3" y1="50" x2="115" y2="50" gradientUnits="userSpaceOnUse"><stop offset="0" stop-color="#f39874"/><stop offset="1" stop-color="#d70142"/></linearGradient></defs><g id="Calque_2" data-name="Calque 2"><g id="Calque_2-2" data-name="Calque 2"><path class="cls-1" d="M115,20v.33c-11.28,2.42-20,18-20,29.67V60h0a40,40,0,0,1-40,40h0v-.33c11.28-2.42,20-18,20-29.67V60h0a40,40,0,0,1,40-40ZM75,0A40,40,0,0,0,35,40h0V54H30a1,1,0,0,0,0,2h5V70A17.51,17.51,0,0,1,17.5,87.5,17.7,17.7,0,0,1,0,72.5a27.5,27.5,0,0,0,55,0V56h5a1,1,0,0,0,0-2H55V30C55,18.31,63.72,2.75,75,.33V0Z"/><path class="cls-2" d="M75,.33C66.77,2.1,59.91,10.86,56.8,20H60A15,15,0,0,0,75,5Z"/><path class="cls-2" d="M15,87.3V57.5a15,15,0,0,0-15,15A17.65,17.65,0,0,0,15,87.3Z"/><path class="cls-2" d="M96.8,40H100a15,15,0,0,0,15-15V20.33C106.77,22.1,99.91,30.86,96.8,40Z"/><path class="cls-2" d="M73.2,80H70A15,15,0,0,0,55,95v4.67C63.23,97.9,70.09,89.14,73.2,80Z"/><path class="cls-3" d="M2.5,40.12H5a10,10,0,0,1,10,10v2.5a0,0,0,0,1,0,0H10a7.5,7.5,0,0,1-7.5-7.5v-5A0,0,0,0,1,2.5,40.12Z" transform="translate(17.5 92.74) rotate(180)"/></g></g></svg>