<svg id="SvgjsSvg1087" width="288" height="288" xmlns="http://www.w3.org/2000/svg" version="1.1" xmlns:xlink="http://www.w3.org/1999/xlink" xmlns:svgjs="http://svgjs.com/svgjs"><defs id="SvgjsDefs1088"></defs><g id="SvgjsG1089"><svg xmlns="http://www.w3.org/2000/svg" width="288" height="288" enable-background="new 0 0 64 64" viewBox="0 0 64 64"><path d="M32,5C17.112,5,5,17.112,5,32s12.112,27,27,27s27-12.112,27-27S46.888,5,32,5z M32,57C18.215,57,7,45.785,7,32
			S18.215,7,32,7s25,11.215,25,25S45.785,57,32,57z" fill="#dd214c" class="color000 svgShape"></path><path d="M41 37c-.552 0-1 .448-1 1 0 4.411-3.589 8-8 8s-8-3.589-8-8c0-.552-.448-1-1-1s-1 .448-1 1c0 5.514 4.486 10 10 10s10-4.486 10-10C42 37.448 41.552 37 41 37zM26 26c0 .552.448 1 1 1s1-.448 1-1c0-2.757-2.243-5-5-5s-5 2.243-5 5c0 .552.448 1 1 1s1-.448 1-1c0-1.654 1.346-3 3-3S26 24.346 26 26zM41 21c-2.757 0-5 2.243-5 5 0 .552.448 1 1 1s1-.448 1-1c0-1.654 1.346-3 3-3s3 1.346 3 3c0 .552.448 1 1 1s1-.448 1-1C46 23.243 43.757 21 41 21z" fill="#dd214c" class="color000 svgShape"></path></svg></g></svg>