<svg id="SvgjsSvg1055" width="288" height="288" xmlns="http://www.w3.org/2000/svg" version="1.1" xmlns:xlink="http://www.w3.org/1999/xlink" xmlns:svgjs="http://svgjs.com/svgjs"><defs id="SvgjsDefs1056"></defs><g id="SvgjsG1057"><svg xmlns="http://www.w3.org/2000/svg" data-name="Layer 1" viewBox="0 0 64 64" width="288" height="288"><path d="M5,60H19a1,1,0,0,0,1-1A8,8,0,0,0,4,59,1,1,0,0,0,5,60Z" fill="#dd214c" class="color000 svgShape"></path><circle cx="12" cy="45" r="5" fill="#dd214c" class="color000 svgShape"></circle><path d="M24,59a1,1,0,0,0,1,1H39a1,1,0,0,0,1-1,8,8,0,0,0-16,0Z" fill="#dd214c" class="color000 svgShape"></path><circle cx="32" cy="45" r="5" fill="#dd214c" class="color000 svgShape"></circle><path d="M52,51a8,8,0,0,0-8,8,1,1,0,0,0,1,1H59a1,1,0,0,0,1-1A8,8,0,0,0,52,51Z" fill="#dd214c" class="color000 svgShape"></path><circle cx="52" cy="45" r="5" fill="#dd214c" class="color000 svgShape"></circle><circle cx="13" cy="9" r="5" fill="#dd214c" class="color000 svgShape"></circle><path d="M5,27H8V37a1,1,0,0,0,1,1h3V28a1,1,0,0,1,2,0V38h3a1,1,0,0,0,1-1V21h7a1,1,0,0,0,1-1V16a1,1,0,0,0-1-1H8a4,4,0,0,0-4,4v7A1,1,0,0,0,5,27Z" fill="#dd214c" class="color000 svgShape"></path><path d="M59,4H21a1,1,0,0,0-1,1v9h5a2,2,0,0,1,2,2v4a2,2,0,0,1-2,2H20v9a1,1,0,0,0,1,1H59a1,1,0,0,0,1-1V5A1,1,0,0,0,59,4ZM53,26H43a1,1,0,0,1,0-2H53a1,1,0,0,1,0,2Zm0-7H29a1,1,0,0,1,0-2H53a1,1,0,0,1,0,2Zm0-7H27a1,1,0,0,1,0-2H53a1,1,0,0,1,0,2Z" fill="#dd214c" class="color000 svgShape"></path></svg></g></svg>