<svg xmlns="http://www.w3.org/2000/svg" width="64" height="64" enable-background="new 0 0 64 64" viewBox="0 0 64 64"><path fill="#5D9CEC" d="M63.245,56.5h-24v-1c0,0,0-0.67,0-2.33c0-1.67,0.84-2.299,2.5-2.92c0.819-0.311,5.409-1.965,5.409-1.965
			l3.111,1.214l0.999-0.99l2,1.991l2.15-2.215c0,0,4.51,1.654,5.33,1.965c1.67,0.621,2.5,1.25,2.5,2.92c0,1.66,0,2.33,0,2.33V56.5z"/><polygon fill="#E6E9ED" points="52.696 56.5 49.914 56.5 50.414 51 52.195 51"/><polygon fill="#F5F7FA" points="52.195 51 50.414 51 49.913 49.641 52.695 49.641"/><path fill="#48CFAD" d="M61.255,41.501c0,0.55-0.45,1-1,1h-57c-0.55,0-1-0.45-1-1V8.5c0-0.55,0.45-1,1-1h57c0.55,0,1,0.45,1,1
			V41.501z"/><path fill="#E6E9ED" d="M19.753,33.996c-5.513,0-9.998-4.485-9.998-9.998S14.24,14,19.753,14s9.997,4.485,9.997,9.998
				S25.266,33.996,19.753,33.996z M19.753,15c-4.962,0-8.998,4.036-8.998,8.998s4.036,8.998,8.998,8.998
				c4.961,0,8.997-4.036,8.997-8.998S24.714,15,19.753,15z"/><path fill="#F5F7FA" d="M10.871,33.386c-0.128,0-0.256-0.049-0.354-0.146c-0.195-0.195-0.195-0.512,0-0.707l1.414-1.414
				c0.195-0.195,0.512-0.195,0.707,0s0.195,0.512,0,0.707l-1.414,1.414C11.127,33.337,10.999,33.386,10.871,33.386z M13.699,30.558
				c-0.128,0-0.256-0.049-0.354-0.146c-0.195-0.195-0.195-0.512,0-0.707l1.414-1.415c0.195-0.195,0.512-0.195,0.707,0
				s0.195,0.512,0,0.707l-1.414,1.415C13.955,30.509,13.827,30.558,13.699,30.558z M16.527,27.729c-0.128,0-0.256-0.049-0.354-0.146
				c-0.195-0.195-0.195-0.512,0-0.707l1.414-1.414c0.195-0.195,0.512-0.195,0.707,0s0.195,0.512,0,0.707l-1.414,1.414
				C16.783,27.68,16.655,27.729,16.527,27.729z M19.355,24.9c-0.128,0-0.256-0.049-0.354-0.146c-0.195-0.195-0.195-0.512,0-0.707
				l1.415-1.415c0.195-0.195,0.512-0.195,0.707,0s0.195,0.512,0,0.707l-1.415,1.415C19.611,24.852,19.483,24.9,19.355,24.9z
				 M22.185,22.071c-0.128,0-0.256-0.049-0.354-0.146c-0.195-0.195-0.195-0.512,0-0.707l1.414-1.414
				c0.195-0.195,0.512-0.195,0.707,0s0.195,0.512,0,0.707l-1.414,1.414C22.44,22.022,22.313,22.071,22.185,22.071z M25.013,19.243
				c-0.128,0-0.256-0.049-0.354-0.146c-0.195-0.195-0.195-0.512,0-0.707l1.414-1.415c0.195-0.195,0.512-0.195,0.707,0
				s0.195,0.512,0,0.707l-1.414,1.415C25.269,19.194,25.141,19.243,25.013,19.243z M27.841,16.414c-0.128,0-0.256-0.049-0.354-0.146
				c-0.195-0.195-0.195-0.512,0-0.707l1.414-1.414c0.195-0.195,0.512-0.195,0.707,0s0.195,0.512,0,0.707l-1.414,1.414
				C28.097,16.365,27.969,16.414,27.841,16.414z"/><path fill="#E6E9ED" d="M53.255 18h-18c-.276 0-.5-.224-.5-.5s.224-.5.5-.5h18c.276 0 .5.224.5.5S53.531 18 53.255 18zM53.255 22h-18c-.276 0-.5-.224-.5-.5s.224-.5.5-.5h18c.276 0 .5.224.5.5S53.531 22 53.255 22zM53.255 26h-18c-.276 0-.5-.224-.5-.5s.224-.5.5-.5h18c.276 0 .5.224.5.5S53.531 26 53.255 26zM44.197 30h-8.942c-.276 0-.5-.224-.5-.5s.224-.5.5-.5h8.942c.276 0 .5.224.5.5S44.474 30 44.197 30z"/><polygon fill="#F7C292" points="61.255 41.5 2.255 41.5 .755 42.499 62.755 42.499"/><rect width="62" height="2" x=".755" y="42.499" fill="#FFD2A6"/><polygon fill="#87BCF4" points="51.305 49.642 53.305 50.5 55.415 48.285 55.415 46.283 51.305 48.392"/><polygon fill="#87BCF4" points="51.305 49.642 49.265 50.5 47.154 48.285 47.154 46.283 51.305 48.285"/><path fill="#656D78" d="M55.215,32.529c0,0,4.05-0.568,3.03,5.971l-2-3c0,0-2.37,1-4.971,1c-2.59,0-5.029-1-5.029-1l-1.99,2.99
			l-0.01,0.01c-1.03-11,12.01-8.811,12.01-8.811C54.314,30.48,55.215,32.529,55.215,32.529z"/><path fill="#EAC6BB" d="M58.274,39.51c0,4.75-4.329,9.131-7,9.131c-2.659,0-7-4.381-7-9.131V38.5l-0.02-0.01l1.99-2.99
			c0,0,2.439,1,5.029,1c2.601,0,4.971-1,4.971-1l2,3h0.029V39.51z"/></svg>