<svg id="SvgjsSvg1161" width="288" height="288" xmlns="http://www.w3.org/2000/svg" version="1.1" xmlns:xlink="http://www.w3.org/1999/xlink" xmlns:svgjs="http://svgjs.com/svgjs"><defs id="SvgjsDefs1162"></defs><g id="SvgjsG1163"><svg xmlns="http://www.w3.org/2000/svg" enable-background="new 0 0 80 80" viewBox="0 0 80 80" width="288" height="288"><path d="M40 31c7.168457 0 13-5.8320312 13-13S47.168457 5 40 5s-13 5.8320312-13 13S32.831543 31 40 31zM40 7c6.0654297 0 11 4.9345703 11 11s-4.9345703 11-11 11-11-4.9345703-11-11S33.9345703 7 40 7zM72 62.9355469c0-1.4453125-.3896484-2.8671875-1.1264648-4.1103516L58.7651367 38.3925781C56.7939453 35.0664062 53.1679688 33 49.3017578 33H30.6982422c-3.8662109 0-7.4921875 2.0664062-9.4633789 5.3925781L9.1264648 58.8251953C8.3896484 60.0683594 8 61.4902344 8 62.9355469 8 65.3533325 9.0750122 67.5205078 10.7659912 69H5v6h70v-6h-5.7659912C70.9249878 67.5205078 72 65.3533325 72 62.9355469zM10 62.9355469c0-1.0869141.2929688-2.15625.847168-3.0908203l12.1083984-20.4326172C24.5683594 36.6904297 27.5351562 35 30.6982422 35h18.6035156c3.1630859 0 6.1298828 1.6904297 7.7426758 4.4121094L69.152832 59.8447266C69.7070312 60.7792969 70 61.8486328 70 62.9355469 70 66.2792969 67.2797852 69 63.9360352 69h-5.1203003C58.9277954 68.6856689 59 68.352356 59 68c0-1.3019409-.838501-2.4016113-2-2.8157349V64h7c.3632812 0 .6977539-.1972656.8740234-.5146484.1767578-.3173828.1669922-.7060547-.0253906-1.0136719L57 49.8690186V44H23v5.8690186l-7.8486328 12.6026611c-.1923828.3076172-.2021484.6962891-.0253906 1.0136719C15.3022461 63.8027344 15.6367188 64 16 64h7v1.1842651C21.838501 65.5983887 21 66.6980591 21 68c0 .352356.0722656.6856689.1843262 1h-5.1203613C12.7202148 69 10 66.2792969 10 62.9355469zM23 68c0-.5517578.4487305-1 1-1h32c.5512695 0 1 .4482422 1 1s-.4487305 1-1 1h-6H34.4165039 24C23.4487305 69 23 68.5517578 23 68zM57 53.651123L62.1992188 62H57V53.651123zM55 65H25V46h30V65zM23 62h-5.1992188L23 53.651123V62zM73 71v2H7v-2h9.0639648H24h10.4165039H50h6 7.9360352H73z" fill="#dd214c" class="color000 svgShape"></path></svg></g></svg>