<svg xmlns="http://www.w3.org/2000/svg" viewBox="0 0 64 64"><polygon fill="#78b9eb" points="61 46 61 51 59 51 5 51 3 51 3 46 6 46 33 46 55 46 61 46"/><circle cx="15" cy="34" r="2" fill="#78b9eb"/><polygon fill="#78b9eb" points="33 46 6 46 6 42 27 42 33 42 33 43 33 46"/><path fill="#78b9eb" d="M49 35v6H40l-1-2H36.75L36 36l.5-2H31V30a4 4 0 0 1 4-4h6a3 3 0 0 0 6 0h6a4 4 0 0 1 4 4v5H49zM52 10V26H47V20l-.05-.28L45 9H37v7.5a5.57 5.57 0 0 0 .44 2.17L33 16V10a6 6 0 0 1 6-6h7A6 6 0 0 1 52 10z"/><path fill="#006df0" d="M61,45H56V36h1a1,1,0,0,0,1-1V30a5,5,0,0,0-5-5V10a7.008,7.008,0,0,0-7-7H39a7.008,7.008,0,0,0-7,7v6a1,1,0,0,0,.48.86l4.2,2.52A6.556,6.556,0,0,0,40,22.5V25H35a5,5,0,0,0-5,5v4a1,1,0,0,0,1,1h1v6H28V28a3.009,3.009,0,0,0-3-3H8a3.009,3.009,0,0,0-3,3V45H3a1,1,0,0,0-1,1v5a1,1,0,0,0,1,1H4v9a1,1,0,0,0,1,1H59a1,1,0,0,0,1-1V52h1a1,1,0,0,0,1-1V46A1,1,0,0,0,61,45ZM36,9v7.5c0,.05.01.09.01.14L34,15.43V10a5,5,0,0,1,5-5h7a5,5,0,0,1,5,5V25H48V20a1.1,1.1,0,0,0-.02-.18l-2-11A1,1,0,0,0,45,8H37A1,1,0,0,0,36,9ZM46,21.97V26a2,2,0,0,1-4,0V22.97a4.193,4.193,0,0,0,.5.03A6.487,6.487,0,0,0,46,21.97ZM38,16.5V10h6.17l1.71,9.45A4.488,4.488,0,0,1,38,16.5ZM32,30a3.009,3.009,0,0,1,3-3h5.14a3.983,3.983,0,0,0,7.72,0H53a3.009,3.009,0,0,1,3,3v4H48V33H46v2a1,1,0,0,0,1,1h1v4H40.62l-.73-1.45A.977.977,0,0,0,39,38H37.53l-.5-2,.94-3.76-1.94-.48L35.72,33H32Zm3.03,6.24L35.47,38H35a3,3,0,0,0-1,.18V35h1.22l-.19.76A.975.975,0,0,0,35.03,36.24ZM35,40h3.38l.73,1.45A.977.977,0,0,0,40,42h9a1,1,0,0,0,1-1V36h4v9H34V41A1,1,0,0,1,35,40ZM7,28a1,1,0,0,1,1-1H25a1,1,0,0,1,1,1V41H7ZM7,43H32v2H7ZM58,60H6V52H58Zm2-10H4V47H60Z"/><path fill="#006df0" d="M15,31a3,3,0,1,0,3,3A3,3,0,0,0,15,31Zm0,4a1,1,0,1,1,1-1A1,1,0,0,1,15,35Z"/></svg>