<svg xmlns="http://www.w3.org/2000/svg" enable-background="new 0 0 130 130" viewBox="0 0 130 130"><line x1="14.574" x2="-.296" y1="110.941" y2="110.941" fill="none"/><path fill="#553045" d="M3.9093521,98.3233261c7.7054138-0.7088623,15.4178457-0.963501,23.1319885-1.1068115
		c7.7148438-0.0980225,15.4314575-0.0820313,23.1551208,0.3922119c-7.7053528,0.7124023-15.4177856,0.9665527-23.1319885,1.1066895
		C19.3495674,98.8103867,11.6329546,98.7939072,3.9093521,98.3233261z"/><ellipse cx="93.483" cy="35.145" fill="#FFF036" rx="17.386" ry="18.004" transform="rotate(-4.333 93.483 35.145)"/><ellipse cx="93.483" cy="35.145" fill="#FFF036" rx="17.386" ry="18.004" transform="rotate(-4.333 93.483 35.145)"/><path fill="#6FCCCF" d="M87.0392303,44.1132927c0.1806564-0.6730881,0.8881302-1.0377083,1.5506973-0.8246498
						c1.298378,0.4175148,2.8624115,0.6461487,4.4812469,0.5234985c3.2019882-0.2425957,4.9577255-1.901825,4.7914886-4.0969849
						c-0.1515274-2.0009613-1.5370636-3.0975227-4.8941193-3.9470558c-4.0549393-0.9914551-6.6429749-2.6784592-6.8727646-5.7129478
						c-0.2566681-3.3893337,2.6820755-6.1449242,7.3949738-6.5019951c1.7011948-0.128891,3.125679,0.0144138,4.2003403,0.2717438
						c0.6729889,0.1611481,1.0671158,0.8599815,0.8724747,1.5250664v0.0000019
						c-0.1831436,0.6258011-0.8276062,1.005476-1.4568253,0.8378887c-0.8865891-0.2361374-2.1026077-0.4117374-3.5481796-0.3022156
						c-3.3096237,0.2507534-4.43396,2.1218796-4.3215027,3.606842c0.1539917,2.0334969,1.7050171,2.922718,5.1383362,3.8314056
						c4.2086182,1.1096802,6.3939056,2.7300529,6.6359024,5.9256973c0.2542419,3.3573036-2.2573547,6.5018349-7.9775238,6.9352226
						c-1.8026428,0.1365776-3.7629929-0.1008949-5.1867371-0.5269394c-0.6285629-0.1880951-0.9981308-0.835453-0.8278275-1.4699974
						L87.0392303,44.1132927z"/><line x1="92.973" x2="94.456" y1="20.872" y2="49.383" fill="#6FCCCF"/><path fill="#FFF" d="M114.7763748,92.1207428c0.2236633-0.411171,0.4473267-0.8223495,0.6709824-1.2335281
					c0.0769958-0.1415405,0.1541748-0.2833862,0.2454529-0.4161606c0.2321396-0.3376541,0.5553741-0.6120071,0.9262314-0.7861481
					c0.0215988-0.0101395,0.225769-0.0636292,0.2457047-0.0767441c0.409317,0.1259232,0.8102493,0.5125122,0.9102173,0.9290237
					c0.2288666,0.9535599,0.3254776,1.9387817,0.2862015,2.9186478c-0.0269089,0.6715088-0.1171265,1.338623-0.181427,2.0075836
					c-0.319252,3.3214798-0.0066223,6.7361526-0.9210587,9.945137c-0.0553741,0.1943359-0.1165237,0.3903885-0.2274475,0.5592804
					c-0.3501511,0.5331192-1.1210251,0.6489258-1.7192154,0.4278336s-1.060173-0.6987534-1.4872055-1.1725006
					c-0.5663147-0.628273-1.1105576-1.2764435-1.6313858-1.9429245c-0.5173874-0.6620789-1.0273438-1.3789902-1.1496735-2.2103653
					c-0.1331863-0.9051895,0.2118149-1.8048706,0.5503693-2.6548309c0.4900208-1.2302322,0.9800415-2.4604645,1.4700699-3.6906967
					C113.1666183,93.7140274,113.7702332,92.5330048,114.7763748,92.1207428z"/><path fill="#FFF" d="M118.1087799 90.9829102c-.033432.3645248-.0650253.7277832-.0947952 1.0894623-.3779449 4.5907516-.4346237 9.2113953-.7424545 13.8048859M116.3392105 112.9435043c-.1188278.540802-.2789536 1.0697784-.5282898 1.5626984-.4148254.8200531-1.114624 1.5394287-2.0036011 1.7717819-1.095108.2862244-2.2838058-.2276077-3.0577698-1.0537186-.7739563-.8261032-1.1980743-1.9178162-1.5060349-3.0072556-.3967896-1.4036865-.2876282-2.9236984-.1000519-4.3703003.0341034-.2630005.0783844-.5242081.1301804-.7840118"/><path fill="#FFF" d="M111.679718,98.4211502c0.2601318-0.9101639,0.5202713-1.8203278,0.7804031-2.730484
				c0.1777115-0.6217804,0.3570633-1.2561798,0.3340302-1.9024582s-0.2824707-1.3182602-0.8186493-1.6796188
				c-0.6601028-0.4448776-1.6228638-0.2878189-2.1862259,0.2746277c-0.5633545,0.5624466-0.7372208,1.4469757-0.5384445,2.2179108
				c0.1325302,0.5139999,0.4101715,0.9773636,0.6979446,1.4233627c2.6229782,4.0651474,6.3379135,7.3170929,9.1160965,11.2777481
				c0.4019775,0.5730667,0.7885132,1.1700439,0.9976807,1.8381042s0.2243423,1.4233398-0.0993576,2.0440216
				c-0.3906708,0.7490845-1.2012405,1.1849136-2.0092163,1.4312515c-1.1587677,0.3532867-2.447319,0.397934-3.5573425-0.0873032
				c-1.2097244-0.5288239-2.0738831-1.6084595-2.8877869-2.6481857c-2.2125626-2.8264771-4.4251251-5.6529465-6.6376953-8.4794159
				c-0.5472336-0.6990738-1.0993118-1.4059448-1.4747925-2.2104645c-0.8332291-1.7853165-0.716835-3.8588638-0.4924164-5.8120728
				c0.2214584-1.9274368,0.555397-3.8364487,0.9720459-5.7312775c0.7778778-3.5376129,1.5416107-7.2181854,2.3041-10.751709
				c0.2484818-1.1515045,0.4918289-2.3821335,0.0658722-3.4804153c-0.2285385-0.5892715-0.6332245-1.0899658-1.0198593-1.5899048
				c-1.528244-1.9760971-2.8663864-4.099205-3.9899597-6.3304749c-0.9284744-1.843853-1.7095566-3.7586555-2.5364838-5.6485138
				c-0.6724091-1.5367317-1.1974945-3.139389-1.4744415-4.7938309c-0.1521988-0.9091759-0.2274933-1.7795677-0.1631393-2.6295586
				c0.1558685-2.0587234,2.6547775-3.1314659,4.2245941-1.7908897c0.009552,0.0081635,0.0190735,0.0163612,0.0285492,0.0245972
				c0.9479523,0.8234444,1.5637131,1.9611664,2.0664139,3.1119347c1.1745834,2.688858,1.8396378,5.5753479,2.9687881,8.2836075
				c0.4366302,1.0472565,0.9517059,2.08041,1.711731,2.9227791c3.1417313,3.4821243,8.9858627,2.4881821,12.9315491,5.0228348
				c1.5115814,0.9710236,2.6562729,2.41008,3.7376785,3.8426819c1.1358185,1.5047073,2.2212677,3.0442886,3.2687531,4.6118088
				c0.8119202,1.2150269,1.7926483,2.6643066,1.4923248,4.1474762c-0.1617432,0.7987061-0.679306,1.4798584-1.206131,2.0943298
				c-1.1798325,1.3761444-2.5379562,2.5819016-3.9817505,3.6777649c-1.1183243,0.8488312-2.2545776,1.9338226-3.6744461,2.2291718
				c-1.1399155,0.2371063-2.5130081-0.2097092-2.9422455-1.2922592c-0.0846939-0.2136078-0.1280136-0.4600906-0.0347748-0.670105
				c0.0855103-0.1926193,0.268898-0.3201523,0.4431381-0.4386597c1.5732422-1.0700684,3.0966492-2.2134247,4.5636368-3.4251328
				c0.3637543-0.3004532,0.7369766-0.622345,0.9173355-1.0583572c0.3592148-0.8683777-0.1594238-1.8397675-0.7299347-2.5864487
				c-0.6885681-0.9011993-1.4814072-1.7226181-2.3576202-2.4426193c-0.1943588-0.1597061-0.404129-0.3196411-0.6521149-0.3617401
				c-0.6689224,3.1271057-1.1711731,6.4229126-1.5261993,9.6664505"/><ellipse cx="114.963" cy="61.379" fill="#FFF" rx="8.099" ry="8.236" transform="rotate(-168.328 114.963 61.379)"/><ellipse cx="114.963" cy="61.379" fill="#FFF" rx="8.099" ry="8.236" transform="rotate(-168.328 114.963 61.379)"/><g><path fill="#FFEFE1" d="M17.602499,121.0895538h-6.2638197c-1.0357199,0-1.8753357-0.8396149-1.8753357-1.8753357V92.2898178
				c0-1.0357132,0.8396158-1.8753281,1.8753357-1.8753281h6.2638197c1.0357189,0,1.8753357,0.8396149,1.8753357,1.8753281
				v26.9244003C19.4778347,120.249939,18.6382179,121.0895538,17.602499,121.0895538z"/><path fill="#FDE4CB" d="M11.7295694,120.3907394h-0.3908901c-1.0357199,0-1.8753357-0.8396149-1.8753357-1.8753357V91.2865143
				c0-1.0357132,0.8396158-1.8753357,1.8753357-1.8753357h0.3908901c1.0357199,0,1.8753357,0.8396225,1.8753357,1.8753357
				v27.2288895C13.6049051,119.5511246,12.7652893,120.3907394,11.7295694,120.3907394z"/><path fill="#C3C3E2" d="M31.9132404,121.1661911h-6.1148739c-1.0357189,0-1.8753338-0.8396149-1.8753338-1.8753357V77.1689606
				c0-1.0357208,0.8396149-1.8753357,1.8753338-1.8753357h6.1148739c1.0357189,0,1.8753338,0.8396149,1.8753338,1.8753357
				v42.1218948C33.7885742,120.3265762,32.9489594,121.1661911,31.9132404,121.1661911z"/><path fill="#9B9ACE" d="M25.9844494,121.0118408h-0.3908901c-1.0357189,0-1.8753357-0.8396149-1.8753357-1.8753357V77.4710464
				c0-1.0357132,0.8396168-1.8753357,1.8753357-1.8753357h0.3908901c1.0357189,0,1.8753357,0.8396225,1.8753357,1.8753357
				v41.6654587C27.8597851,120.172226,27.0201683,121.0118408,25.9844494,121.0118408z"/><path fill="#FFCADE" d="M46.3729286,121.0915985H40.109108c-1.035717,0-1.8753357-0.8396149-1.8753357-1.8753357V81.633255
				c0-1.0357208,0.8396187-1.8753357,1.8753357-1.8753357h6.2638206c1.035717,0,1.8753357,0.8396149,1.8753357,1.8753357v37.5830078
				C48.2482643,120.2519836,47.4086456,121.0915985,46.3729286,121.0915985z"/><path fill="#E3F8FF" d="M60.3003235,121.035675h-6.2638206c-1.0357208,0-1.8753357-0.8396149-1.8753357-1.8753357V89.6252289
				c0-1.0357208,0.8396149-1.8753357,1.8753357-1.8753357h6.2638206c1.035717,0,1.8753319,0.8396149,1.8753319,1.8753357v29.5351105
				C62.1756554,120.1960602,61.3360405,121.035675,60.3003235,121.035675z"/><path fill="#C1E6F9" d="M55.2930756,121.1590118h-0.3908882c-1.0357208,0-1.8753357-0.8396149-1.8753357-1.8753357v-29.865509
				c0-1.0357208,0.8396149-1.8753357,1.8753357-1.8753357h0.3908882c1.0357208,0,1.8753357,0.8396149,1.8753357,1.8753357v29.865509
				C57.1684113,120.319397,56.3287964,121.1590118,55.2930756,121.1590118z"/><path fill="#FFEFE1" d="M74.6110611,121.2807388h-6.1148682c-1.0357208,0-1.8753357-0.8396149-1.8753357-1.8753357V83.9913025
				c0-1.0357208,0.8396149-1.8753357,1.8753357-1.8753357h6.1148682c1.0357208,0,1.8753357,0.8396149,1.8753357,1.8753357
				v35.4141006C76.4863968,120.441124,75.6467819,121.2807388,74.6110611,121.2807388z"/><path fill="#FDE4CB" d="M70.5576096,121.1118774h-4.1415634V83.6851883c0-0.8615112,0.6983948-1.559906,1.559906-1.559906
				h2.5816574V121.1118774z"/><path fill="#9EE5E3" d="M89.0707474,121.0630875h-6.2638168c-1.0357208,0-1.8753357-0.8396149-1.8753357-1.8753357V80.1573944
				c0-1.0357132,0.8396149-1.8753281,1.8753357-1.8753281h6.2638168c1.0357208,0,1.8753357,0.8396149,1.8753357,1.8753281
				v39.0303574C90.9460831,120.2234726,90.1064682,121.0630875,89.0707474,121.0630875z"/><path fill="#6FCCCF" d="M83.1689301,121.1281738h-0.3908844c-1.0357208,0-1.8753357-0.8396149-1.8753357-1.8753357V80.2551346
				c0-1.0357208,0.8396149-1.8753357,1.8753357-1.8753357h0.3908844c1.0357208,0,1.8753357,0.8396149,1.8753357,1.8753357
				v38.9977036C85.0442657,120.288559,84.2046509,121.1281738,83.1689301,121.1281738z"/><path fill="#F8A3BC" d="M40.4711113,121.1544876h-0.390892c-1.035717,0-1.8753357-0.8396149-1.8753357-1.8753357V81.7276917
				c0-1.0357208,0.8396187-1.8753357,1.8753357-1.8753357h0.390892c1.035717,0,1.8753357,0.8396149,1.8753357,1.8753357v37.5514603
				C42.346447,120.3148727,41.5068283,121.1544876,40.4711113,121.1544876z"/><path fill="#553045" d="M83.2386398 8.2180977c-6.4366379-1.3345561-12.3334045 2.725318-14.2925415 9.7230225C73.616188 12.0981941 75.0956879 9.8266382 83.2386398 8.2180977zM79.2729416 69.0841904l-3.0765991 2.3981934C68.6157761 77.3905869 57.861866 77.088829 50.6235847 70.76754 42.662159 63.812458 30.9414558 63.6200752 22.755909 70.307579L3.3721206 86.1415634c-.3208008.2626953-.3681641.734375-.1064453 1.0556641.1484375.1816406.3642578.2753906.581543.2753906.1669919 0 .3344724-.0556641.4741209-.1689453l19.3837891-15.8339844c7.6171875-6.2236328 18.5229492-6.0439453 25.9316406.4267578 7.7788086 6.7949219 19.335453 7.1181641 27.4814491.7695313l3.0769653-2.3984375 2.2178955 2.845459 10.1464233-13.4339638L77.054985 66.2386093 79.2729416 69.0841904zM101.0142136 39.2543526c-.3499756-4.6098633-4.8099976-5.1499023-6.6400146-5.9299316l-.3900146-7.4499512c1.7600098-.0800781 3.4000244.3499756 3.4300537.3499756 1.4299927 0 1.6399536-2.0799561.2799683-2.4000244-1.8900146-.4499512-3.710022-.2900391-3.8300171-.2900391l-.1399536-2.6999512c-.0599976-1.0200195-1.5500488-.9000244-1.5.0800781l.1399536 2.7799072c-.0999756.0500488-6.6799927.9899902-6.2699585 6.3599854.3200073 4.2099609 4.9299927 4.9300537 6.8999634 5.7199707l.4200439 8c-3.3700562.6101074-5.8300171-1.6699219-6.3700562.3400879l-.0199585.0699463c-.1799927.6400146.1900024 1.2900391.8200073 1.4700928 2.9699707.8898926 5.5899658.4699707 5.6900024.4699707.3099976 2.1699219-.2700195 4.0999756.9599609 4.0100098 1.2600098-.0700684.4700317-1.9000244.5300293-4.2399902C99.3342209 44.9644356 101.2341843 42.1844063 101.0142136 39.2543526zM89.2341843 29.4944649c-.0999756-1.3199463.7700195-2.9300537 3.2600098-3.460083l.3500366 6.8400879C91.6741867 32.3044014 89.4241867 31.9245186 89.2341843 29.4944649zM94.9042282 43.4844551l-.3800049-7.2600098c.8099976.4599609 3.1499634.8900146 3.3399658 3.4899902C97.994194 41.444416 96.9241867 42.8444405 94.9042282 43.4844551zM121.0178146 52.5157051l.0705566.0275879c.3284531.1413841 2.6325607.9280052 3.8192749 1.8232422 4.2135086 2.7049828 3.1610184 7.5194397-.3781128 10.8050575 2.306778-1.8057709 4.296196-4.9312248 3.6386642-7.8499794-.6643524-2.9383316-3.1754837-4.2533379-4.4883957-5.1662598-.0458069-.0225487-2.06707-1.0204315-2.1143799-1.0390625-.3864136-.151123-.8222046.0394287-.9734497.4259033C120.4407272 51.9285469 120.6314011 52.36446 121.0178146 52.5157051z"/><path fill="#553045" d="M128.6241913 78.0343857c-2.7000046-4.0300293-5.349968-7.9499512-8.5399704-9.369873 3.8300171-2.7600098 4.9199829-8.1700478 2.2999878-12.239994-1.2999878-2-3.289978-3.3701172-5.5999756-3.8500977-2.3200073-.4799805-4.6900024-.0100098-6.6700439 1.3200684-2.5100098 1.6699219-3.8399658 4.6799316-3.8399658 5.8099365-.9100342-2.6400146-1.9700317-6.4899902-3.4299927-8.4500732 10.5700073-6.5599365 11.8299561-21.9199219 2.4400024-30.289917-12.2300415-10.8699951-31.1500244-1.0899658-29.8900146 15.5499268.3800049 4.9899902 2.6199951 9.5400391 6.289978 12.8100586 3.3400269 2.9799805 7.5100098 4.5700684 11.8599854 4.5700684 1.0700073 0 2.0599976-.1000977 2.7700195-.2199707.1500244 3.4299316 1.9400024 6.9399414 2.289978 7.829834 7.0400391 16.4901161 8.4800415 7.5400429 5.9200439 19.5800819-2.8900146 13.4399414-3.7300415 16.3200684-.2399902 20.7800293.0899658.1199951 3.9599609 5.0699463 4.1999512 5.3699951-1.7199707 9.8599854 6.6199951 13 8.460022 6.3499756 3.9400024-.6300049 5.2700195-3.1799316 2.7299805-6.7099609-.5-.7099609-1.0299683-1.4100342-1.5799561-2.0800781.0899658-1.6499023.1599731-3.3199463.2299805-4.9399414.0999756-2.3800049.2799683-6.2099609.5200195-8.6300049 2.0099487.6700439 3.7099609-.5200195 5.3200073-1.7900391 1.4699707-1.1700439 3.0299683-2.3099365 4.6899338-4.25.6000366-.6999512 1.1800537-1.4799805 1.3700562-2.4399414C130.5842133 80.9744492 129.5142059 79.3644638 128.6241913 78.0343857zM110.954216 55.1444893c5.4799805-3.710083 12.5299683 1.2299805 11.210022 7.7199707-1.6000366 7.6300087-12.1400146 8.0699501-14.2600098.6398926 0 0-.0100098 0-.0100098-.0098877C107.0142136 60.3844795 108.204216 56.9844551 110.954216 55.1444893zM96.3442307 52.1645088c-5.2800293.8299561-10.0100098-.710083-13.6600342-3.960083-3.3900146-3.0100098-5.4400024-7.2000732-5.789978-11.7999268-1.1600342-15.2299805 16.1799927-24.3200684 27.3900146-14.3200684 3.3800049 3.0100098 5.4400024 7.1999512 5.789978 11.8000488.5200195 6.8299561-2.8900146 13.0300293-8.25 16.2299805-.1900024-.3900146-1.8099976-1.2299805-3.4500122-.5600586C97.2642136 50.0143623 96.494194 51.0043526 96.3442307 52.1645088zM109.7842331 108.8944931c1.5999756 2.0499268 3.0899658 4.3898926 5.6099854 4.6699219C113.9742355 117.7244492 109.2142258 115.2344589 109.7842331 108.8944931zM123.8541794 87.7743759c-.8499756.6101074-2.0799561 1.8300781-3.3799438 2.0900879-.7800293.1599121-1.8000488-.1101074-2.0900269-.8300781-.0200195-.0499268-.0300293-.0799561-.039978-.0899658 4.3299561-3.4499512 9.7899704-4.9100342 2.6199951-10.8399658-.8800049-.7099609-1.0400391-.4399414-1.710022-.6400146-.1099854.5699463-.960022 3.960083-1.6599731 10.1700439-1 .6999512-.9000244 1.7700195-.25 2.5499268-.25 2.4100342-.4100342 6.3599854-.5100098 8.6300049-.0599976 1.3900146-.1300049 2.8100586-.2000122 4.2299805-1.4500122-1.6599121-2.8300171-3.1599121-4.1300049-4.7800293.8400269-2.9299316 1.0800171-3.5799561 1.039978-4.5-.1299438-4.2299805-6.0499878-3.0299072-5.0199585 1.0200195.6099854 2.4300537 5.8299561 7.8200684 8.0299683 10.4899902l.4700317.5800781c2.0499878 2.5 3.9199829 5.1099854.7099609 6.0400391-2.7099609.8399658-4-.3901367-5.6399536-2.4799805-7.2800293-9.3000488-7.5800171-9.6000977-8.0200195-10.5400391-1.5700073-3.3900146.5-10.7600098 1.9099731-17.4799805 2.75-12.9400635 1-4.0400391-6-20.4799843-.039978-.1000977-3.1900024-6.9801025-1.9599609-9.1401367 0-.0100098 0-.0100098 0-.0100098.4799805-.9399414 1.8699951-1.3598633 2.7999878-.539917 4.3200073 3.6800537 3.6099854 19.1400185 14.0999756 19.1400185 1.2000122 0 2.3800049-.25 3.4800415-.7399902 3.3899536 1.0899658 5.2099609 3.5899658 9 9.2800293C129.0441742 81.3844833 130.4441986 82.7543564 123.8541794 87.7743759zM119.244194 86.4744492c.2999878-2.4200439.6700439-4.7399902 1.1099854-6.9200439.8400269.7399902 2.9700317 2.8300781 2.5300293 3.8800049C122.6542282 83.9844589 119.7341843 86.1144638 119.244194 86.4744492zM111.7341843 95.4844589l-.3599854 1.289917c-.4299927-.5799561-1.2199707-1.6999512-1.3999634-2.3598633-.3500366-1.3601074.8799438-2.1601563 1.5799561-1.6800537C112.3541794 93.2543564 111.994194 94.5844345 111.7341843 95.4844589zM124.5871506 119.9685898l-16.5231323 1.3516846 16.5776978.1473389c.0220337.0001221.0455322-.0007324.0678711-.0025635.413269-.0338135.7208862-.3962402.6870728-.8094482S125.0004196 119.9347763 124.5871506 119.9685898zM17.6041756 89.6645126H11.334218c-1.4400024 0-2.6199951 1.1799316-2.6199951 2.6298828v26.9200439c0 1.4500732 1.1799927 2.6300049 2.6199951 2.6300049h6.2699575c1.4500122 0 2.6200562-1.1799316 2.6200562-2.6300049V92.2943954C20.2242317 90.8444443 19.0541878 89.6645126 17.6041756 89.6645126zM18.7242317 119.2144394c0 .6199951-.5 1.1300049-1.1200562 1.1300049H11.334218c-.6199951 0-1.1199951-.5100098-1.1199951-1.1300049.1799927-9.9799805.0599976-16.4400635-.0200195-20.5999756 0-.2700195-.0100098-.5200195-.0100098-.7700195-.1199951-5.9299316-.1199951-6.6799316 1.1500244-6.6799316h6.2699575c.6200562 0 1.1200562.5 1.1200562 1.1298828V119.2144394zM31.9142342 74.5443954H25.794178c-1.4400024 0-2.6199951 1.1800537-2.6199951 2.6201172v42.1298828c0 1.4400635 1.1799927 2.6201172 2.6199951 2.6201172h6.1200562c1.4499512 0 2.6199951-1.1800537 2.6199951-2.6201172V77.1645126C34.5342293 75.7244492 33.3641853 74.5443954 31.9142342 74.5443954zM33.0342293 119.2943954c0 .6201172-.5 1.1201172-1.1199951 1.1201172H25.794178c-.6199951 0-1.1199951-.5-1.1199951-1.1201172.1000366-8.3599854.1100464-15.1099854.0900269-20.5499268 0-.5 0-1-.0100098-1.4801025-.0899658-20.2999268-.6500244-21.2199707 1.039978-21.2199707h6.1200562c.6199951 0 1.1199951.5 1.1199951 1.1201172V119.2943954zM60.3041878 87.0043564h-6.2699585c-1.4500122 0-2.6199951 1.170166-2.6199951 2.6201172v29.5400391c0 1.4399414 1.1699829 2.619873 2.6199951 2.619873h6.2699585c1.4400024 0 2.6199951-1.1799316 2.6199951-2.619873V89.6244736C62.9241829 88.1745224 61.7441902 87.0043564 60.3041878 87.0043564zM61.4241829 119.1645126c0 .619873-.5 1.119873-1.1199951 1.119873h-6.2699585c-.6199951 0-1.1199951-.5-1.1199951-1.119873V89.6244736c0-.6201172.5-1.1201172 1.1199951-1.1201172h6.2699585c.6199951 0 1.1199951.5 1.1199951 1.1201172V119.1645126zM74.6141891 81.3644638H68.494194c-1.4500122 0-2.6199951 1.1799316-2.6199951 2.6300049v35.4100342c0 1.4499512 1.1699829 2.6298828 2.6199951 2.6298828h6.1199951c1.4400024 0 2.6199951-1.1799316 2.6199951-2.6298828V83.9944687C77.2341843 82.5443954 76.0541916 81.3644638 74.6141891 81.3644638zM75.7341843 119.4045029c0 .619873-.5 1.1298828-1.1199951 1.1298828H68.494194c-.6199951 0-1.1199951-.5100098-1.1199951-1.1298828V83.9944687c0-.6199951.5-1.1300049 1.1199951-1.1300049h6.1199951c.6199951 0 1.1199951.5100098 1.1199951 1.1300049V119.4045029zM89.0742111 77.5343857h-6.2700195c-1.4400024 0-2.6199951 1.1800537-2.6199951 2.6201172v39.0299072c0 1.4500732 1.1799927 2.6300049 2.6199951 2.6300049h6.2700195c1.4400024 0 2.6199951-1.1799316 2.6199951-2.6300049V80.1545029C91.6942062 78.7144394 90.5142136 77.5343857 89.0742111 77.5343857zM90.1942062 119.1844101c0 .6199951-.5 1.1300049-1.1199951 1.1300049h-6.2700195c-.6199951 0-1.1199951-.5100098-1.1199951-1.1300049V80.1545029c0-.6201172.5-1.1201172 1.1199951-1.1201172h6.2700195c.6199951 0 1.1199951.5 1.1199951 1.1201172V119.1844101zM46.3741951 79.0043564h-6.2700195c-1.4399414 0-2.6199951 1.1800537-2.6199951 2.630127v37.5799561c0 1.4500732 1.1800537 2.6300049 2.6199951 2.6300049h6.2700195c1.4500122 0 2.6199951-1.1799316 2.6199951-2.6300049V81.6344833C48.9941902 80.1844101 47.8242073 79.0043564 46.3741951 79.0043564zM47.4941902 119.2144394c0 .6199951-.5 1.1300049-1.1199951 1.1300049h-6.2700195c-.6199951 0-1.1199951-.5100098-1.1199951-1.1300049V81.6344833c0-.6201172.5-1.130127 1.1199951-1.130127h6.2700195c.6199951 0 1.1199951.5100098 1.1199951 1.130127V119.2144394z"/></g></svg>