<svg xmlns="http://www.w3.org/2000/svg" data-name="Layer 1" viewBox="0 0 64 64"><rect width="8" height="6.4" x="17" y="41.6" fill="#d9e1e6"/><rect width="12" height="14" x="15" y="48" fill="#8197bf" rx="1"/><path fill="#7083a6" d="M49.5,12a7.811,7.811,0,0,0-.079-1.1.929.929,0,0,1,.495-.935l.582-.321a.937.937,0,0,0,.367-1.312L49.254,5.667a1.029,1.029,0,0,0-1.372-.352l-.588.325a1.068,1.068,0,0,1-1.145-.094A8.533,8.533,0,0,0,44.27,4.5a.987.987,0,0,1-.655-.9V2.96a.983.983,0,0,0-1-.96H39.389a.983.983,0,0,0-1,.96V3.6a.987.987,0,0,1-.655.9,8.533,8.533,0,0,0-1.879,1.043,1.068,1.068,0,0,1-1.145.094l-.588-.325a1.029,1.029,0,0,0-1.372.352L31.135,8.333A.937.937,0,0,0,31.5,9.645l.582.321a.929.929,0,0,1,.495.935,7.684,7.684,0,0,0,0,2.2.929.929,0,0,1-.495.935l-.582.321a.937.937,0,0,0-.367,1.312l1.611,2.666a1.029,1.029,0,0,0,1.372.352l.588-.325a1.068,1.068,0,0,1,1.145.094A8.533,8.533,0,0,0,37.73,19.5a.987.987,0,0,1,.655.9v.644a.983.983,0,0,0,1,.96h3.222a.983.983,0,0,0,1-.96V20.4a.987.987,0,0,1,.655-.9,8.533,8.533,0,0,0,1.879-1.043,1.068,1.068,0,0,1,1.145-.094l.588.325a1.029,1.029,0,0,0,1.372-.352l1.611-2.666a.937.937,0,0,0-.367-1.312l-.582-.321a.929.929,0,0,1-.495-.935A7.811,7.811,0,0,0,49.5,12Z"/><circle cx="41" cy="12" r="4" fill="#c0c8cc"/><circle cx="21" cy="23" r="19" fill="#d9e1e6"/><circle cx="21" cy="23" r="15" fill="#7cb2f8"/><rect width="14" height="14" x="14" y="16" fill="#e6b155"/><rect width="6" height="9" x="41" y="53" fill="#d98285"/><polygon fill="#cc7a7d" points="56 39 50 47 53 47 53 62 59 62 59 47 62 47 56 39"/><path fill="#cc9d4b" d="M14,29.95V30H28V16h-.05A14.979,14.979,0,0,1,14,29.95Z"/><path d="M16,42.342V47a2,2,0,0,0-2,2V61a2,2,0,0,0,2,2H26a2,2,0,0,0,2-2V49a2,2,0,0,0-2-2V42.342A20.017,20.017,0,0,0,41,23h1.61a1.987,1.987,0,0,0,2.01-1.96l.019-.61a10.95,10.95,0,0,0,2.173-1.191l.578.313a2.013,2.013,0,0,0,2.714-.7l1.628-2.675a1.931,1.931,0,0,0,.2-1.492,1.966,1.966,0,0,0-.95-1.208l-.573-.238A8.976,8.976,0,0,0,50.5,12a6.339,6.339,0,0,0-.1-1.154l.587-.325a1.955,1.955,0,0,0,.735-2.711L50.112,5.165a2.015,2.015,0,0,0-2.71-.724l-.659.3A8.055,8.055,0,0,0,44.62,3.6V2.96A1.987,1.987,0,0,0,42.61,1H39.39a1.987,1.987,0,0,0-2.01,1.96l-.019.61a10.95,10.95,0,0,0-2.173,1.191l-.578-.313a2.018,2.018,0,0,0-2.714.7l-.489.8A19.978,19.978,0,1,0,16,42.342ZM26,61H16V49H26ZM18,47V42.75A19.916,19.916,0,0,0,21,43a19.916,19.916,0,0,0,3-.25V47ZM33.643,6.2l.583.316a2.073,2.073,0,0,0,2.216-.16,7.433,7.433,0,0,1,1.648-.922A1.967,1.967,0,0,0,39.38,3.6l.01-.6,3.23-.04V3.6A1.965,1.965,0,0,0,43.9,5.43a7.417,7.417,0,0,1,1.662.928,2.068,2.068,0,0,0,2.206.161L48.4,6.19l1.621,2.584-.575.317a1.922,1.922,0,0,0-1.012,1.946,6.66,6.66,0,0,1,0,1.933,1.915,1.915,0,0,0,1.008,1.935l.579.245L48.357,17.8l-.583-.316a2.071,2.071,0,0,0-2.216.16,7.433,7.433,0,0,1-1.648.922A1.967,1.967,0,0,0,42.62,20.4l-.01.6H40.9a19.847,19.847,0,0,0-.856-4.095A5.058,5.058,0,0,0,41,17a5,5,0,1,0-4.651-6.8,20.1,20.1,0,0,0-3.275-3.1ZM38.9,14.14q-.381-.765-.823-1.491A2.707,2.707,0,0,1,38,12a3,3,0,1,1,3,3A2.973,2.973,0,0,1,38.9,14.14ZM21,5A18,18,0,1,1,3,23,18.021,18.021,0,0,1,21,5Z"/><path d="M21,39A16,16,0,1,0,5,23,16.019,16.019,0,0,0,21,39ZM21,9A14,14,0,1,1,7,23,14.015,14.015,0,0,1,21,9Z"/><path d="M14 31H28a1 1 0 0 0 1-1V16a1 1 0 0 0-1-1H14a1 1 0 0 0-1 1V30A1 1 0 0 0 14 31zm1-14h5v3h2V17h5V29H15zM48 62V53a1 1 0 0 0-1-1H41a1 1 0 0 0-1 1v9a1 1 0 0 0 1 1h6A1 1 0 0 0 48 62zm-2-1H42V54h4zM49.105 47.447A1 1 0 0 0 50 48h2V62a1 1 0 0 0 1 1h6a1 1 0 0 0 1-1V48h2a1 1 0 0 0 .8-1.6l-6-8a1.036 1.036 0 0 0-1.6 0l-6 8A1 1 0 0 0 49.105 47.447zm6.9-6.78L60 46H59a1 1 0 0 0-1 1V61H54V47a1 1 0 0 0-1-1H52z"/></svg>