<svg xmlns="http://www.w3.org/2000/svg" viewBox="0 0 64 64"><g data-name="Marketing"><path fill="#bddbff" d="M59 41v4a4.012 4.012 0 0 1-4 4H9a4.012 4.012 0 0 1-4-4V41zM41 17a2 2 0 1 1-1 3.73V17.27A2 2 0 0 1 41 17zM41 57a2.006 2.006 0 0 1 2 2 2.015 2.015 0 0 1-2 2H23a2.006 2.006 0 0 1-2-2 2.015 2.015 0 0 1 2-2H41z"/><path fill="#bddbff" d="M39.41,9.59A1.955,1.955,0,0,0,38,9a2.006,2.006,0,0,0-2,2V27a2,2,0,0,0,4,0V11A1.955,1.955,0,0,0,39.41,9.59Z"/><path fill="#bddbff" d="M48,3H16a2.006,2.006,0,0,0-2,2v6H50V5A2.006,2.006,0,0,0,48,3Z"/><polygon fill="#bddbff" points="38 49 39 57 25 57 26 49 38 49"/><polygon fill="#bddbff" points="36 11 36 27 27 23.4 26 23 26 15 36 11"/><path fill="#bddbff" d="M27,23.4V31a2.006,2.006,0,0,1-2,2H23a2.006,2.006,0,0,1-2-2V23h5Z"/><rect width="4" height="8" x="22" y="15" fill="#bddbff"/><path fill="#bddbff" d="M22,15v8H20a2.006,2.006,0,0,1-2-2V17a2.006,2.006,0,0,1,2-2Z"/><rect width="4" height="2" x="46" y="18" fill="#3d9ae2"/><rect width="4.243" height="2" x="44.379" y="12.5" fill="#3d9ae2" transform="rotate(-45 46.5 13.5)"/><rect width="2" height="4.243" x="45.5" y="22.379" fill="#3d9ae2" transform="rotate(-45 46.5 24.5)"/><path fill="#3d9ae2" d="M41,16V11a2.995,2.995,0,0,0-5.9-.716L25.807,14H20a3,3,0,0,0-3,3v4a3,3,0,0,0,3,3v7a3,3,0,0,0,3,3h2a3,3,0,0,0,3-3V24.877l7.1,2.839A2.995,2.995,0,0,0,41,27V22a3,3,0,0,0,0-6Zm-14-.323,8-3.2V25.523l-8-3.2ZM23,16h2v6H23Zm-4,5V17a1,1,0,0,1,1-1h1v6H20A1,1,0,0,1,19,21Zm7,10a1,1,0,0,1-1,1H23a1,1,0,0,1-1-1V24h3.807l.193.077Zm13-4a1,1,0,0,1-2,0V11a1,1,0,0,1,2,0Zm2-7V18a1,1,0,0,1,0,2Z"/><rect width="2" height="2" x="17" y="6" fill="#3d9ae2"/><rect width="2" height="2" x="21" y="6" fill="#3d9ae2"/><rect width="2" height="2" x="25" y="6" fill="#3d9ae2"/><path fill="#3d9ae2" d="M55,8H51V5a3,3,0,0,0-3-3H16a3,3,0,0,0-3,3V8H9a5.006,5.006,0,0,0-5,5V45a5.006,5.006,0,0,0,5,5H24.867l-.75,6H23a3,3,0,0,0,0,6H41a3,3,0,0,0,0-6H39.883l-.75-6H55a5.006,5.006,0,0,0,5-5V13A5.006,5.006,0,0,0,55,8ZM9,10h4V35a3,3,0,0,0,3,3H48a3,3,0,0,0,3-3V22H49V35a1,1,0,0,1-1,1H16a1,1,0,0,1-1-1V12H29V10H15V5a1,1,0,0,1,1-1H48a1,1,0,0,1,1,1V16h2V10h4a3,3,0,0,1,3,3V40H6V13A3,3,0,0,1,9,10ZM42,59a1,1,0,0,1-1,1H23a1,1,0,0,1,0-2H41A1,1,0,0,1,42,59Zm-4.133-3H26.133l.75-6H37.117ZM55,48H9a3,3,0,0,1-3-3V42H58v3A3,3,0,0,1,55,48Z"/><rect width="2" height="2" x="52" y="44" fill="#3d9ae2"/></g></svg>