<svg xmlns="http://www.w3.org/2000/svg" viewBox="0 0 64 64"><defs><linearGradient id="a" x1="32" x2="32" y1="62.93" y2="2.61" gradientUnits="userSpaceOnUse"><stop offset="0" stop-color="#fff" stop-opacity="0"/><stop offset="1" stop-color="#e3e0fa"/></linearGradient></defs><circle cx="32" cy="32" r="32" fill="url(#a)"/><path fill="#e3e0fa" d="M36,44h3V56H8l1.5-8.23A16.81,16.81,0,0,1,19,35.53c.33-.15.66-.29,1-.42a16.78,16.78,0,0,1,3.14-.87L26,38l2.88-3.76a16.67,16.67,0,0,1,3.15.87c.34.13.67.27,1,.42a16.9,16.9,0,0,1,6.68,5.53Z"/><polygon fill="#ffb066" points="30 56 22 56 24 43 28 43 30 56"/><path fill="#fff" d="M29,31.48V34l-.15.24L26,38l-2.83-3.76L23,34V31.48a8.91,8.91,0,0,0,6,0Z"/><path fill="#fff" d="M35,19v4a9,9,0,0,1-6,8.48,8.91,8.91,0,0,1-6,0A9,9,0,0,1,17,23V19H16a6,6,0,0,0,6-6,5.9,5.9,0,0,0,1,3.31A6,6,0,0,0,28,19Z"/><path fill="#fff" d="M17,19v5h-.5a2.5,2.5,0,1,1,0-5Z"/><path fill="#fff" d="M37.5,19H38a0,0,0,0,1,0,0v5a0,0,0,0,1,0,0h-.5A2.5,2.5,0,0,1,35,21.5v0A2.5,2.5,0,0,1,37.5,19Z" transform="rotate(180 36.5 21.5)"/><path fill="#e13612" d="M22,8v5a6,6,0,0,1-6,6V14A6,6,0,0,1,22,8Z"/><path fill="#e13612" d="M36,15v4H28a6,6,0,0,1-5-2.69A5.9,5.9,0,0,1,22,13V8.08A5.47,5.47,0,0,1,23,8h6A7,7,0,0,1,36,15Z"/><path fill="#fff" d="M22,8h1a5.47,5.47,0,0,0-1,.08Z"/><path fill="#ffb066" d="M29,40.5A2.49,2.49,0,0,1,26.5,43h-1A2.5,2.5,0,0,1,23,40.5a2.34,2.34,0,0,1,0-.38L26,38l3,2.12A2.34,2.34,0,0,1,29,40.5Z"/><path fill="#e3e0fa" d="M26 38l-3 2.12L19 43V35.53c.33-.15.66-.29 1-.42a16.78 16.78 0 0 1 3.14-.87L26 38zM33 35.53V43l-4-2.88L26 38h0l2.88-3.76a16.67 16.67 0 0 1 3.15.87C32.34 35.24 32.67 35.38 33 35.53z"/><rect width="14" height="12" x="39" y="44" fill="#fff"/><polygon fill="#e13612" points="56 44 36 44 39.68 41.06 46 36 56 44"/><rect width="4" height="7" x="44" y="49" fill="#ffb066"/><path fill="#220046" d="M29.3,44.87l-.31-2A1,1,0,0,0,28,42H24a1,1,0,0,0-1,.85l-2,13s0,0,0,.08A.14.14,0,0,0,21,56a.8.8,0,0,0,0,.15,1.16,1.16,0,0,0,0,.18.84.84,0,0,0,.11.21s0,.08.06.11l0,0a.92.92,0,0,0,.25.19l.07,0A1,1,0,0,0,22,57a1,1,0,0,0,1-1c0-.18.17-1,.17-1l1.69-11h2.28l.18,1.17a1,1,0,0,0,1.14.84A1,1,0,0,0,29.3,44.87Z"/><path fill="#220046" d="M31 55.93s0 0 0-.08l-1.23-8a1 1 0 0 0-2 .3l1 6.88s.17.82.17 1a1 1 0 0 0 1 1 1 1 0 0 0 .41-.09l.07 0a.92.92 0 0 0 .25-.19l0 0s0-.07.06-.11a.84.84 0 0 0 .11-.21 1.16 1.16 0 0 0 0-.18A.8.8 0 0 0 31 56 .14.14 0 0 0 31 55.93zM26 39h0a1 1 0 0 1-.8-.4l-2.83-3.76a.33.33 0 0 1-.06-.1l-.14-.24A1 1 0 0 1 22 34V31.48a1 1 0 0 1 .43-.82 1 1 0 0 1 .91-.12 8 8 0 0 0 5.32 0 1 1 0 0 1 .91.12 1 1 0 0 1 .43.82V34a1 1 0 0 1-.15.53l-.15.24-2.94 3.84A1 1 0 0 1 26 39zm-2-5.28l2 2.63 2-2.64V32.8a10 10 0 0 1-4 0z"/><path fill="#220046" d="M26,33a9.66,9.66,0,0,1-3.34-.58A10.07,10.07,0,0,1,18.83,30a1,1,0,1,1,1.42-1.4,8.25,8.25,0,0,0,3.09,2A8,8,0,0,0,34,23V20H28a7,7,0,0,1-5.83-3.14A2.33,2.33,0,0,1,22,16.6a7,7,0,0,1-4,3.11V23a7.73,7.73,0,0,0,.48,2.71,1,1,0,0,1-1.88.7A9.88,9.88,0,0,1,16,23V20a1,1,0,0,1,0-2,5,5,0,0,0,5-5,1,1,0,0,1,2,0,4.92,4.92,0,0,0,.83,2.75A5,5,0,0,0,28,18h7a1,1,0,0,1,1,1v4a10,10,0,0,1-6.67,9.42A9.56,9.56,0,0,1,26,33Z"/><path fill="#220046" d="M17 25h-.5a3.5 3.5 0 1 1 0-7H17a1 1 0 0 1 1 1v5A1 1 0 0 1 17 25zm-1-4.91a1.43 1.43 0 0 0-.56.35A1.5 1.5 0 0 0 16 22.91zM35.5 25H35a1 1 0 0 1-1-1V19a1 1 0 0 1 1-1h.5a3.5 3.5 0 0 1 0 7zm.5-4.91v2.82a1.49 1.49 0 0 0 0-2.82z"/><path fill="#220046" d="M16,20a1,1,0,0,1-1-1V14a7,7,0,0,1,7-7,1,1,0,0,1,1,1v5A7,7,0,0,1,16,20ZM21,9.1A5,5,0,0,0,17,14v3.9A5,5,0,0,0,21,13Z"/><path fill="#220046" d="M36,20H28a7,7,0,0,1-5.83-3.14A6.83,6.83,0,0,1,21,13V8.08a1,1,0,0,1,.82-1A6,6,0,0,1,23,7h6a8,8,0,0,1,7.28,4.69,1,1,0,0,1-1.82.82A6,6,0,0,0,29,9H23v4a4.92,4.92,0,0,0,.83,2.75A5,5,0,0,0,28,18h7V16a1,1,0,0,1,2,0v3A1,1,0,0,1,36,20Z"/><path fill="none" stroke="#231f20" stroke-linecap="round" stroke-linejoin="round" stroke-width="2" d="M22,8h1a5.47,5.47,0,0,0-1,.08Z"/><path fill="#220046" d="M9.93 47l-.22 0A1 1 0 0 1 9 45.78 2.45 2.45 0 0 1 9 45.49H9a1 1 0 0 1 1-.76 1 1 0 0 1 1 1h0a1.06 1.06 0 0 1 0 .31l-.06.17A1 1 0 0 1 9.93 47zM40.3 41.84L38.85 43H39a1 1 0 0 1 1 1V56a1 1 0 0 1-1 1h0a1 1 0 0 1-1-1V45H36a1 1 0 0 1-.94-.67 1 1 0 0 1 .32-1.11l2.91-2.33a14.77 14.77 0 0 0-2.18-2.22 15.65 15.65 0 0 0-3.53-2.23l-.94-.4a15.77 15.77 0 0 0-2.37-.7l-2.51 3.27A1 1 0 0 1 26 39a1 1 0 0 1-.8-.4l-2.45-3.26a16.9 16.9 0 0 0-2.36.7l-.95.4a15.87 15.87 0 0 0-6.92 6.19 1 1 0 0 1-1.7-1 17.81 17.81 0 0 1 7.79-7c.35-.16.7-.31 1.06-.44A17.62 17.62 0 0 1 23 33.26a1 1 0 0 1 1 .38l2 2.71 2.08-2.72a1 1 0 0 1 1-.38 18.75 18.75 0 0 1 3.34.93c.36.13.71.28 1 .44a17.76 17.76 0 0 1 4 2.51 17.54 17.54 0 0 1 3.12 3.37A1 1 0 0 1 40.3 41.84zM10.11 50a1 1 0 1 0-2-.36L7 55.82v.07S7 56 7 56a.7.7 0 0 0 0 .14 1.13 1.13 0 0 0 0 .18 2.12 2.12 0 0 0 .11.21s0 .08.06.11l0 0a1.16 1.16 0 0 0 .21.16.5.5 0 0 0 .12.08A.9.9 0 0 0 8 57a1 1 0 0 0 1-1l.2-1z"/><path fill="#220046" d="M26.5,44h-1A3.5,3.5,0,0,1,22,40.5,3.31,3.31,0,0,1,22,40a1,1,0,0,1,.41-.64l3-2.12a1,1,0,0,1,1.16,0l3,2.12A1,1,0,0,1,30,40a3.31,3.31,0,0,1,0,.55A3.48,3.48,0,0,1,29,43,3.54,3.54,0,0,1,26.5,44ZM24,40.65A1.49,1.49,0,0,0,25.5,42h1A1.5,1.5,0,0,0,28,40.65l-2-1.42Z"/><path fill="#220046" d="M19,44a1.07,1.07,0,0,1-.46-.11A1,1,0,0,1,18,43V35.53a1,1,0,0,1,.58-.91c.35-.16.7-.31,1.06-.44A17.62,17.62,0,0,1,23,33.26a1,1,0,0,1,1,.38l2.75,3.66a1,1,0,0,1-.11,1.51l-7,5A.94.94,0,0,1,19,44Zm1-7.81v4.87l4.56-3.26-1.84-2.46a16.9,16.9,0,0,0-2.36.7Z"/><path fill="#220046" d="M33 44a.94.94 0 0 1-.58-.19l-6.93-5a1 1 0 0 1-.4-.42 1 1 0 0 1 .09-1l2.88-3.76a1 1 0 0 1 1-.38 18.52 18.52 0 0 1 3.34.93c.36.13.71.28 1.06.44a1 1 0 0 1 .58.91V43a1 1 0 0 1-.54.89A1.07 1.07 0 0 1 33 44zm-5.6-6.23L32 41.06V36.19L31.64 36a15.77 15.77 0 0 0-2.37-.7zM53 57H39a1 1 0 0 1-1-1V44a1 1 0 0 1 1-1H53a1 1 0 0 1 1 1v6a1 1 0 0 1-2 0V45H40V55H52V54a1 1 0 0 1 2 0v2A1 1 0 0 1 53 57z"/><path fill="#220046" d="M56 45H36a1 1 0 0 1-.94-.67 1 1 0 0 1 .32-1.11L41 38.69a1 1 0 0 1 1.26 1.56L38.85 43h14.3L46 37.28l-.63.51a1 1 0 1 1-1.25-1.56l1.26-1a1 1 0 0 1 1.25 0l10 8A1 1 0 0 1 56 45zM48 57H44a1 1 0 0 1-1-1V49a1 1 0 0 1 1-1h4a1 1 0 0 1 1 1v7A1 1 0 0 1 48 57zm-3-2h2V50H45z"/></svg>