<svg xmlns="http://www.w3.org/2000/svg" enable-background="new 0 0 36 36" viewBox="0 0 36 36"><path fill="#EFEFEF" d="M8.377,31.833c6.917,0,11.667,3.583,15,3.583S33.71,33.5,33.71,18.167S24.293,0.583,20.627,0.583C3.46,0.583-3.873,31.833,8.377,31.833z"/><path fill="#A4AFC1" d="M23.562,7.5c-0.827,0-1.5-0.673-1.5-1.5s0.673-1.5,1.5-1.5s1.5,0.673,1.5,1.5S24.39,7.5,23.562,7.5z M23.562,5.5c-0.276,0-0.5,0.224-0.5,0.5s0.224,0.5,0.5,0.5s0.5-0.224,0.5-0.5S23.838,5.5,23.562,5.5z"/><rect width="1" height="2" x="3.5" y="26.144" fill="#A4AFC1"/><rect width="1" height="2" x="3.5" y="31.894" fill="#A4AFC1"/><rect width="2" height="1" y="29.394" fill="#A4AFC1"/><rect width="2" height="1" x="5.75" y="29.394" fill="#A4AFC1"/><polygon fill="#2FDF84" points="19.5 7.125 19.5 28.875 6.75 27.125 6.75 9.125"/><rect width="9.75" height="16" x="19.5" y="10.125" fill="#F3F3F1"/><polygon fill="#00B871" points="9 27.125 9 9.125 19.5 7.478 19.5 7.125 6.75 9.125 6.75 27.125 19.5 28.875 19.5 28.566"/><rect width="2.25" height="16" x="19.5" y="10.125" fill="#D5DBE1"/><path d="M19.5,29.625c-0.034,0-0.068-0.002-0.102-0.007l-12.75-1.75C6.277,27.817,6,27.5,6,27.125v-18c0-0.369,0.269-0.684,0.634-0.741l12.75-2c0.217-0.034,0.438,0.028,0.604,0.171c0.167,0.143,0.263,0.351,0.263,0.57v21.75c0,0.217-0.094,0.423-0.257,0.565C19.855,29.56,19.68,29.625,19.5,29.625z M7.5,26.471l11.25,1.544V8.002L7.5,9.767V26.471z"/><path d="M29.25,26.875H19.5c-0.414,0-0.75-0.336-0.75-0.75v-16c0-0.414,0.336-0.75,0.75-0.75h9.75c0.414,0,0.75,0.336,0.75,0.75v16C30,26.539,29.664,26.875,29.25,26.875z M20.25,25.375h8.25v-14.5h-8.25V25.375z"/><path d="M27.25,15.949h-2.812c-0.414,0-0.75-0.336-0.75-0.75v-2.777c0-0.414,0.336-0.75,0.75-0.75c1.964,0,3.562,1.583,3.562,3.527C28,15.613,27.664,15.949,27.25,15.949z M25.188,14.449h1.166c-0.211-0.52-0.635-0.934-1.166-1.139V14.449z"/><path d="M22.562,20.578c-1.964,0-3.562-1.583-3.562-3.527s1.598-3.527,3.562-3.527c0.414,0,0.75,0.336,0.75,0.75v2.027h2.062c0.414,0,0.75,0.336,0.75,0.75C26.125,18.996,24.527,20.578,22.562,20.578z M21.812,15.162c-0.768,0.295-1.312,1.031-1.312,1.889c0,1.118,0.925,2.027,2.062,2.027c0.868,0,1.612-0.53,1.916-1.277h-1.916c-0.414,0-0.75-0.336-0.75-0.75V15.162z"/><rect width="6.75" height="1.5" x="19.5" y="21.125"/><rect width="6.75" height="1.5" x="19.5" y="23.125"/><rect width="1.5" height="9" x="10" y="13.625"/><path d="M13.425,19.775H10.75c-0.414,0-0.75-0.336-0.75-0.75v-4.65c0-0.414,0.336-0.75,0.75-0.75h2.675c1.696,0,3.075,1.379,3.075,3.075S15.121,19.775,13.425,19.775z M11.5,18.275h1.925c0.869,0,1.575-0.707,1.575-1.575s-0.707-1.575-1.575-1.575H11.5V18.275z"/></svg>