<svg xmlns="http://www.w3.org/2000/svg" viewBox="0 0 32 32"><circle cx="16" cy="16" r="15" fill="#ff9797"/><path fill="#e47979" d="M31,16A15,15,0,0,1,16,31V1A15,15,0,0,1,31,16Z"/><circle cx="16" cy="16" r="12" fill="#eef5fd"/><path fill="#d7e2f2" d="M28,16A12,12,0,0,1,16,28V4A12,12,0,0,1,28,16Z"/><circle cx="16" cy="16" r="5.2" fill="#ff9797"/><path fill="#e47979" d="M21.2,16A5.2,5.2,0,0,1,16,21.2V10.8A5.2,5.2,0,0,1,21.2,16Z"/><path fill="#c9c1f5" d="M23.41,16l1.3-1.29a1,1,0,0,0-1.42-1.42L21.59,15H16a1,1,0,0,0,0,2h5.59l1.7,1.71a1,1,0,0,0,1.42,0,1,1,0,0,0,0-1.42Z"/><path fill="#afbdd6" d="M24.71,14.71,23.41,16H15a1,1,0,0,1,1-1h5.59l1.7-1.71a1,1,0,0,1,1.42,1.42Z"/></svg>