<svg xmlns="http://www.w3.org/2000/svg" viewBox="0 0 200 200"><defs><style>.cls-1{fill:#fceee9;}.cls-2{fill:#e35861;}.cls-3{fill:#e86a67;}.cls-4{fill:#e75e61;}.cls-5{fill:#db2651;}.cls-6{fill:#f4aba5;}.cls-7{fill:#de3152;}.cls-8{fill:#f3a8a7;}.cls-9{fill:#f3aba7;}.cls-10{fill:#f3aaa6;}.cls-11{fill:#d91a4b;}.cls-12{fill:#e04d5d;}.cls-13{fill:#e9746a;}.cls-14{fill:#cf0b44;}.cls-15{fill:#ec8271;}.cls-16{fill:#da3f5a;}.cls-17{fill:#ec927a;}.cls-18{fill:#d55162;}.cls-19{fill:#dc284f;}</style></defs><g id="Calque_2" data-name="Calque 2"><g id="Calque_1-2" data-name="Calque 1"><path class="cls-1" d="M0,200V0H200V200ZM78.88,61.76,78.06,63v0c-.65,1.13-1.69,2.19-1.89,3.4-1.37,8.1-2.58,16.23-3.81,24.36-.61,4.05-2.51,8.53-1.44,12.09,2.59,8.59,1.14,17,.67,25.44L71,130l-1.78,3.14-11.3,8.71-3,.44L48,142.07l.09-.11V105.81c-7.5,1.12-12.85,3.7-15.82,9.72-3.47,7-3.84,14,1.6,20.4-1.3,4.73,3.94,12.35,10.18,14.81,3.72,4.18,8.52,6,14,6.31h0l11.83,0,2-.41,9.31-4.17,1.13-1.1.11.06c9.64-5.63,14.12-14.65,14.43-25.19.54-18.76.09-37.54,0-56.32L99.1,61c1.79-.31,3.57-.73,5.38-.92,11.09-1.12,17.58-8.77,16.5-19.9-.11-1.13-2-2.1-3-3.14-9.43-.57-17.74,2.06-24.65,8.66L82.26,56l-2.16,3.1-1.32,2.72Zm49.28,84.39,6-6c3.31-6.25,8.1-12.16,9.56-18.81,2-9.13,1.46-18.82,2-28.26l.3-3.08,1.62-5h.35c15.09,1.4,24.8-9.93,21.38-24.85l-7.38,1.71c-6.83-.37-12.52,2.57-17.94,6.26Q137.52,74.49,131,80.93l-1,.87L124,93.9c-.68,2.18-1.78,4.32-2,6.54-.75,9.85-1.23,19.73-1.81,29.6,0,.36-.11.72-.17,1.07L119,133c-15.58.57-23.07,8-21.9,22,.06.74,1.29,1.39,2,2.08l9.92-1,1.07-.14,5-1.81.94-.27,3.23-1.67,8.88-6Zm-95-60.72c-.71,11.91,4.08,16.35,14.72,14C49.13,86.33,46.16,83.44,33.18,85.43Z"/><path class="cls-2" d="M96.88,69.89c0,18.78.49,37.56,0,56.32C96.52,136.75,92,145.77,82.4,151.4c.35-.85.47-2,1.08-2.49,4.55-4,6-8.39,2.94-14.11-.82-1.52-.25-3.91,0-5.85.36-2.54,1.44-5,1.53-7.53.24-6,.17-12,.06-18-.28-15.83-.65-31.66-1-47.49l.21-.38-.21.38L82.26,56,93.33,45.67c3.5.53,3.4,3.6,2.53,5.37C92.62,57.65,97,63.61,96.88,69.89Z"/><path class="cls-3" d="M71.59,128.27c.47-8.48,1.92-16.85-.67-25.44-1.07-3.56.83-8,1.44-12.09,1.23-8.13,2.44-16.26,3.81-24.36.2-1.21,1.24-2.27,1.89-3.4.66,1.92,1.9,3.86,1.88,5.78-.09,8-.84,16-.82,24.06,0,10.13.59,20.26.92,30.38,0,1-.33,2.3.16,2.94,4.32,5.6-.62,10.14-1.49,15.45,3,1.88,4.75,4.31,1.56,7.83-.15.17.5,1.08.78,1.64l.11,1.38-9.31,4.17c-1-2.06-3.24-4.37-2.89-6.15,1.1-5.53-1.24-11.14.81-16.54.07-.17-.34-.52-.53-.79L71,130c.13.41.27.81.4,1.21l.52-.08Z"/><path class="cls-4" d="M81.05,151.06c-.28-.56-.93-1.47-.78-1.64,3.19-3.52,1.39-5.95-1.56-7.83.87-5.31,5.81-9.85,1.49-15.45-.49-.64-.12-1.94-.16-2.94-.33-10.12-.89-20.25-.92-30.38,0-8,.73-16,.82-24.06,0-1.92-1.22-3.86-1.88-5.78v0l.82-1.2-.09.08,1.31-2.72L82.26,56,87.05,56h0c.33,15.83.7,31.66,1,47.49.11,6,.18,12-.06,18-.09,2.52-1.17,5-1.53,7.53-.27,1.94-.84,4.33,0,5.85,3.07,5.72,1.61,10.11-2.94,14.11-.61.54-.73,1.64-1.08,2.49l-.11-.06Z"/><path class="cls-5" d="M131,80.93q6.57-6.44,13.15-12.86c-.16,1.93-.29,3.87-.48,5.81q-1,10.71-2.11,21.41l1.51.32L145.78,93c-.56,9.44,0,19.13-2,28.26-1.46,6.65-6.25,12.56-9.56,18.81l-2.13-.08c.75-1.58,1.51-3.15,2.24-4.74.6-1.31,2-3.14,1.62-3.86-3.3-5.64,1.5-10.08,1.88-15.11a19.76,19.76,0,0,0,.22-3c-.76-10.88-2.82-21.74-.48-32.66,0-.1-.51-.32-.71-.44L132.07,83h0Z"/><path class="cls-6" d="M33.89,135.93c-5.44-6.41-5.07-13.38-1.6-20.4,3-6,8.32-8.6,15.82-9.72V142h-4Z"/><path class="cls-7" d="M124,93.9,130,81.8l2.1,1.18h0c-.72,2-2.06,3.89-2.08,5.84-.12,13.42-.34,26.87.29,40.26.22,4.66.31,8.74-2.5,12.56-.19.26.19.93.3,1.41,0,1,0,2.07.08,3.1v0l-4.88.93L118,137l.24-1c.61-1.65,1.23-3.29,1.84-4.94.06-.35.12-.71.17-1.07l2.79-.41c-.35-2.57-1-4.79-.91-7C122.65,113.07,123.38,103.49,124,93.9Zm.34,43.54,1.15.07.14-2.81-1.13-.06Z"/><path class="cls-8" d="M162.05,61.81l7.38-1.71C172.85,75,163.14,86.35,148.05,85c1.39-10.19,9.12-15.91,16.14-22.47Z"/><path class="cls-9" d="M118.26,136.05l-.24,1-3.94,7.05-2,3h0l-13,10c-.68-.69-1.91-1.34-2-2.08-1.17-14,6.32-21.42,21.9-22C118.75,134,118.5,135,118.26,136.05Z"/><path class="cls-10" d="M118,37c1,1,2.89,2,3,3.14,1.08,11.13-5.41,18.78-16.5,19.9-1.81.19-3.59.61-5.38.92a55.9,55.9,0,0,1,2.64-7.25C105.49,46.57,111.37,41.42,118,37Z"/><path class="cls-11" d="M162.05,61.81l2.14.67c-7,6.56-14.75,12.28-16.14,22.47h-.35l-1.62,5-.3,3.08L143,95.61l-1.51-.32q1.06-10.71,2.11-21.41c.19-1.94.32-3.88.48-5.81C149.53,64.38,155.22,61.44,162.05,61.81Z"/><path class="cls-12" d="M118,37c-6.61,4.41-12.49,9.56-16.24,16.71A55.9,55.9,0,0,0,99.1,61l-2.22,8.92c.16-6.28-4.26-12.24-1-18.85.87-1.77,1-4.84-2.53-5.37C100.24,39.07,108.55,36.44,118,37Z"/><path class="cls-13" d="M69.24,133.13c.19.27.6.62.53.79-2,5.4.29,11-.81,16.54-.35,1.78,1.86,4.09,2.89,6.15l-2,.41-11.83,0h0l-.09-15.21Z"/><path class="cls-14" d="M33.18,85.43c13-2,16,.9,14.72,14C37.26,101.78,32.47,97.34,33.18,85.43Z"/><path class="cls-15" d="M57.94,141.84,58,157.05c-5.44-.34-10.24-2.13-14-6.31l0-8.78h4l-.09.11c2.22,3.22,4.62.6,6.95.21Z"/><path class="cls-16" d="M114.08,144.08,118,137l5.26,10,4.88-.93-8.88,6-3.23,1.67-.94.27c-3-3.14-3.91-.32-5,1.81L109,156l-2.43-.36,5.5-8.64h0Z"/><path class="cls-17" d="M44.1,142l0,8.78c-6.24-2.46-11.48-10.08-10.18-14.81Z"/><path class="cls-16" d="M124,93.9c-.65,9.59-1.38,19.17-1.88,28.77-.11,2.17.56,4.39.91,7l-2.79.41c.58-9.87,1.06-19.75,1.81-29.6C122.25,98.22,123.35,96.08,124,93.9Z"/><path class="cls-18" d="M112.06,147l-5.5,8.64L109,156l-9.92,1Z"/><path class="cls-16" d="M128.16,146.15c0-1-.06-2.06-.08-3.1l4-3,2.13.08Z"/><path class="cls-18" d="M110.06,155.9c1.14-2.13,2-5,5-1.81Z"/><path class="cls-15" d="M58.06,157.06l11.83,0Z"/><path class="cls-17" d="M55,142.28c-2.33.39-4.73,3-6.95-.21Z"/><path class="cls-5" d="M146.08,90l1.62-5Z"/><path class="cls-16" d="M118.26,136.05c.24-1,.49-2,.74-3l1.1-1.9C119.49,132.76,118.87,134.4,118.26,136.05Z"/><path class="cls-18" d="M116.05,153.82l3.23-1.67Z"/><path class="cls-19" d="M132.07,83,130,81.8l1-.87Z"/><path class="cls-13" d="M71.59,128.27l.35,2.85-.52.08c-.13-.4-.27-.8-.4-1.21Z"/><path class="cls-3" d="M80.1,59.12l-1.31,2.72C79.22,60.93,79.66,60,80.1,59.12Z"/><path class="cls-3" d="M78.88,61.76,78.06,63Z"/><path class="cls-2" d="M81.05,151.06l1.24.28-1.13,1.1C81.12,152,81.09,151.52,81.05,151.06Z"/><path class="cls-4" d="M87.05,56l.21-.38-.21.38Z"/><path class="cls-19" d="M132.07,140l-4,3c-.11-.48-.49-1.15-.3-1.41,2.81-3.82,2.72-7.9,2.5-12.56-.63-13.39-.41-26.84-.29-40.26,0-1.95,1.36-3.89,2.08-5.84l4.77-2.72c.2.12.73.34.71.44-2.34,10.92-.28,21.78.48,32.66a19.76,19.76,0,0,1-.22,3c-.38,5-5.18,9.47-1.88,15.11.42.72-1,2.55-1.62,3.86C133.58,136.88,132.82,138.45,132.07,140Z"/><path class="cls-16" d="M124.37,137.44l.16-2.8,1.13.06-.14,2.81Z"/><path class="cls-18" d="M114.08,144.08l-2,3Z"/></g></g></svg>