<svg xmlns="http://www.w3.org/2000/svg" enable-background="new 0 0 64 64" viewBox="0 0 64 64"><path d="M57 51h-1.111C57.19 49.728 58 47.958 58 46c0-3.86-3.141-7-7-7s-7 3.14-7 7c0 1.958.81 3.728 2.111 5H45c-2.757 0-5 2.243-5 5v1h-1-2c-1.654 0-3-1.346-3-3v-1.059c4.493-.5 8-4.317 8-8.941 0-4.657-3.556-8.5-8.096-8.954C33.456 32.744 31.43 31 29 31h-6v-2.586l1.293 1.293 1.414-1.414-3-3C22.512 25.098 22.256 25 22 25s-.512.098-.707.293l-3 3 1.414 1.414L21 28.414V31h-6c-2.43 0-4.456 1.744-4.904 4.046C5.556 35.5 2 39.343 2 44c0 4.624 3.507 8.442 8 8.941V54c0 2.757 2.243 5 5 5h22 2 1v2c0 .552.447 1 1 1h20c.553 0 1-.448 1-1v-5C62 53.243 59.757 51 57 51zM40 44c0 3.86-3.141 7-7 7s-7-3.14-7-7 3.141-7 7-7S40 40.14 40 44zM4 44c0-3.86 3.141-7 7-7s7 3.14 7 7-3.141 7-7 7S4 47.86 4 44zM12 54v-1.059c4.493-.5 8-4.317 8-8.941 0-4.569-3.425-8.345-7.842-8.917C12.548 33.879 13.667 33 15 33h14c1.333 0 2.452.879 2.842 2.083C27.425 35.654 24 39.431 24 44c0 4.624 3.507 8.442 8 8.941V54c0 1.13.391 2.162 1.026 3H15C13.346 57 12 55.654 12 54zM46 46c0-2.757 2.243-5 5-5s5 2.243 5 5-2.243 5-5 5S46 48.757 46 46zM60 60H42v-4c0-1.654 1.346-3 3-3h12c1.654 0 3 1.346 3 3V60zM33 24v-5c0-2.757-2.243-5-5-5h-1.111c1.074-1.051 1.806-2.443 2.031-4h9.666l-1.293 1.293 1.414 1.414 3-3C41.902 9.512 42 9.256 42 9s-.098-.512-.293-.707l-3-3-1.414 1.414L38.586 8H28.92C28.432 4.613 25.519 2 22 2c-3.859 0-7 3.14-7 7 0 1.958.81 3.728 2.111 5H16c-2.757 0-5 2.243-5 5v5c0 .552.447 1 1 1h10 10C32.553 25 33 24.552 33 24zM17 9c0-2.757 2.243-5 5-5s5 2.243 5 5-2.243 5-5 5S17 11.757 17 9zM31 23H13v-4c0-1.654 1.346-3 3-3h12c1.654 0 3 1.346 3 3V23z"/><rect width="2" height="2" x="7" y="41"/><rect width="2" height="2" x="13" y="41"/><path d="M14,46h-2c0,0.551-0.448,1-1,1s-1-0.449-1-1H8c0,1.654,1.346,3,3,3S14,47.654,14,46z"/><rect width="2" height="2" x="29" y="41"/><rect width="2" height="2" x="35" y="41"/><path d="M33,45c-1.654,0-3,1.346-3,3h2c0-0.551,0.448-1,1-1s1,0.449,1,1h2C36,46.346,34.654,45,33,45z"/><rect width="10" height="2" x="46" y="6"/><rect width="10" height="2" x="46" y="10"/><rect width="10" height="2" x="46" y="14"/><path d="M43,20h7v15.586l-1.293-1.293l-1.414,1.414l3,3C50.488,38.902,50.744,39,51,39s0.512-0.098,0.707-0.293l3-3l-1.414-1.414
	L52,35.586V20h7c0.553,0,1-0.448,1-1V3c0-0.552-0.447-1-1-1H43c-0.553,0-1,0.448-1,1v6v10C42,19.552,42.447,20,43,20z M44,4h14v14
	H44V4z"/></svg>