<svg xmlns="http://www.w3.org/2000/svg" data-name="Layer 1" viewBox="0 0 64 64"><rect width="4" height="4" x="47" y="5"/><rect width="2" height="2" x="48" y="2"/><rect width="4" height="4" x="13" y="5"/><rect width="2" height="2" x="14" y="2"/><path d="M37 17h1a1 1 0 0 1 1 1V31h6V13l-8-1zM25 18a1 1 0 0 1 1-1h1V12l-8 1V31h6z"/><path d="M44 12h1a1 1 0 0 1 1 1V30h6V10H44zM12 30h6V13a1 1 0 0 1 1-1h1V10H12zM30 28v4h4V28a2 2 0 0 0-4 0z"/><path d="M32,13a4,4,0,0,0-4,4v1H26V32h3V28a3,3,0,0,1,6,0v4h3V18H36V17A4,4,0,0,0,32,13ZM31,23H29V21h2Zm4,0H33V21h2Z"/><polygon points="39 33 25 33 21 37 43 37 39 33"/><rect width="8" height="2" x="28" y="49"/><rect width="6" height="2" x="29" y="45"/><rect width="4" height="2" x="30" y="41"/><rect width="12" height="8" x="43" y="54"/><path d="M61.435,37.852l.55-4.581A1.994,1.994,0,0,0,60.058,31a1.966,1.966,0,0,0-1.915,1.688l-.377,2.359a16.99,16.99,0,0,1-8,11.953l1.921-4,.586-3.048A1.615,1.615,0,0,0,50.735,38a1.564,1.564,0,0,0-1.4.9L47.844,42A10.142,10.142,0,0,0,44,50v3h9.609A24.151,24.151,0,0,0,61.435,37.852Z"/><rect width="12" height="8" x="9" y="54"/><path d="M2.015,33.271l.55,4.581A24.151,24.151,0,0,0,10.391,53H20V50a10.142,10.142,0,0,0-3.844-8l-1.488-3.1a1.564,1.564,0,0,0-1.4-.9,1.615,1.615,0,0,0-1.538,1.952L12.313,43l1.921,4a16.99,16.99,0,0,1-8-11.953l-.377-2.359A1.966,1.966,0,0,0,3.942,31,1.994,1.994,0,0,0,2.015,33.271Z"/></svg>